<svg xmlns="http://www.w3.org/2000/svg" viewBox="0 0 380 150" preserveAspectRatio="none"><path d="M40,14 C45.44,24.56 45.44,24.56 56,30 C45.44,35.44 45.44,35.44 40,46 C34.56,35.44 34.56,35.44 24,30 C34.56,24.56 34.56,24.56 40,14 Z" fill="#FFD166"/><path d="M210,122 C214.08,129.92 214.08,129.92 222,134 C214.08,138.08 214.08,138.08 210,146 C205.92,138.08 205.92,138.08 198,134 C205.92,129.92 205.92,129.92 210,122 Z" fill="#FFD166"/><path d="M366,67 C371.1,76.9 371.1,76.9 381,82 C371.1,87.1 371.1,87.1 366,97 C360.9,87.1 360.9,87.1 351,82 C360.9,76.9 360.9,76.9 366,67 Z" fill="#FFD166"/></svg>