<svg xmlns="http://www.w3.org/2000/svg" viewBox="0 0 380 150" preserveAspectRatio="none"><path d="M40,14 C45.44,24.56 45.44,24.56 56,30 C45.44,35.44 45.44,35.44 40,46 C34.56,35.44 34.56,35.44 24,30 C34.56,24.56 34.56,24.56 40,14 Z" fill="#FFD166"/><path d="M366,73 C371.78,84.22 371.78,84.22 383,90 C371.78,95.78 371.78,95.78 366,107 C360.22,95.78 360.22,95.78 349,90 C360.22,84.22 360.22,84.22 366,73 Z" fill="#FF0080"/><path d="M196,0 C199.4,6.6 199.4,6.6 206,10 C199.4,13.4 199.4,13.4 196,20 C192.6,13.4 192.6,13.4 186,10 C192.6,6.6 192.6,6.6 196,0 Z" fill="#ffffff"/><path d="M150,122 C154.08,129.92 154.08,129.92 162,134 C154.08,138.08 154.08,138.08 150,146 C145.92,138.08 145.92,138.08 138,134 C145.92,129.92 145.92,129.92 150,122 Z" fill="#FF0080"/><path d="M300,38 C302.72,43.28 302.72,43.28 308,46 C302.72,48.72 302.72,48.72 300,54 C297.28,48.72 297.28,48.72 292,46 C297.28,43.28 297.28,43.28 300,38 Z" fill="#FF8FCB"/></svg>