<svg xmlns="http://www.w3.org/2000/svg" viewBox="0 0 380 150" preserveAspectRatio="none"><path d="M350,14 C354.08,21.92 354.08,21.92 362,26 C354.08,30.08 354.08,30.08 350,38 C345.92,30.08 345.92,30.08 338,26 C345.92,21.92 345.92,21.92 350,14 Z" fill="#ffffff"/><path d="M20,92 C24.08,99.92 24.08,99.92 32,104 C24.08,108.08 24.08,108.08 20,116 C15.92,108.08 15.92,108.08 8,104 C15.92,99.92 15.92,99.92 20,92 Z" fill="#FF8FCB"/><path d="M330,116 C333.4,122.6 333.4,122.6 340,126 C333.4,129.4 333.4,129.4 330,136 C326.6,129.4 326.6,129.4 320,126 C326.6,122.6 326.6,122.6 330,116 Z" fill="#FFD166"/><path d="M250,120 C252.72,125.28 252.72,125.28 258,128 C252.72,130.72 252.72,130.72 250,136 C247.28,130.72 247.28,130.72 242,128 C247.28,125.28 247.28,125.28 250,120 Z" fill="#ffffff"/><path d="M60,31 C63.06,36.94 63.06,36.94 69,40 C63.06,43.06 63.06,43.06 60,49 C56.94,43.06 56.94,43.06 51,40 C56.94,36.94 56.94,36.94 60,31 Z" fill="#FF0080"/></svg>